<?xml version="1.0" standalone="no"?>
<!DOCTYPE svg PUBLIC "-//W3C//DTD SVG 20010904//EN"
 "http://www.w3.org/TR/2001/REC-SVG-20010904/DTD/svg10.dtd">
<svg version="1.0" xmlns="http://www.w3.org/2000/svg"
 width="640.000000pt" height="640.000000pt" viewBox="0 0 640.000000 640.000000"
 preserveAspectRatio="xMidYMid meet">
<metadata>
Created by potrace 1.14, written by Peter Selinger 2001-2017
</metadata>
<g transform="translate(0.000000,640.000000) scale(0.100000,-0.100000)"
fill="#000000" stroke="none">
<path d="M1697 5610 l-27 -21 0 -399 c0 -433 -1 -422 56 -436 30 -8 72 18 79
49 3 12 4 194 3 404 -3 414 -2 404 -58 418 -18 4 -34 0 -53 -15z"/>
<path d="M2291 5616 c-14 -8 -28 -22 -32 -32 -4 -11 -8 -191 -8 -402 l-1 -383
25 -24 c13 -14 31 -25 40 -25 20 0 57 19 67 34 4 6 8 190 8 408 l0 397 -26 20
c-31 24 -40 25 -73 7z"/>
<path d="M2883 5620 c-12 -5 -26 -18 -32 -29 -7 -13 -11 -152 -11 -406 l0
-386 25 -24 c13 -14 33 -25 45 -25 12 0 32 11 45 25 l25 24 0 391 0 391 -25
24 c-26 27 -37 29 -72 15z"/>
<path d="M3457 5610 l-27 -21 0 -399 c0 -433 -1 -422 56 -436 30 -8 72 18 79
49 3 12 4 194 3 404 -3 414 -2 404 -58 418 -18 4 -34 0 -53 -15z"/>
<path d="M4051 5616 c-14 -8 -28 -22 -32 -32 -4 -11 -8 -191 -8 -402 l-1 -383
25 -24 c29 -30 68 -32 95 -5 19 19 20 33 20 419 l0 400 -26 20 c-31 24 -40 25
-73 7z"/>
<path d="M4643 5620 c-12 -5 -26 -18 -32 -29 -7 -13 -11 -152 -11 -406 l0
-386 25 -24 c13 -14 33 -25 45 -25 12 0 32 11 45 25 l25 24 0 389 c0 357 -1
391 -17 410 -22 25 -51 33 -80 22z"/>
<path d="M1450 5299 c-118 -23 -220 -105 -274 -218 l-31 -66 0 -2005 0 -2005
32 -65 c40 -81 100 -143 178 -184 l60 -31 1785 0 1785 0 57 27 c120 56 201
166 219 297 6 39 8 875 7 2011 l-3 1945 -22 53 c-62 151 -189 240 -351 245
l-77 2 -5 -272 -5 -271 -25 -27 c-64 -69 -147 -73 -209 -11 l-36 36 -5 273 -5
272 -147 3 -148 3 0 -254 c0 -242 -1 -255 -22 -297 -55 -105 -197 -106 -250 0
-16 31 -18 67 -18 293 l0 258 -147 -3 -148 -3 -5 -265 c-4 -234 -7 -269 -23
-293 -41 -62 -116 -83 -184 -51 -66 32 -67 38 -73 339 l-5 270 -150 0 -150 0
-5 -270 c-5 -294 -5 -293 -66 -333 -59 -38 -129 -26 -184 33 l-25 27 -5 271
-5 272 -147 3 -148 3 0 -254 c0 -242 -1 -255 -22 -297 -55 -105 -197 -106
-250 0 -16 31 -18 67 -18 293 l0 258 -147 -3 -148 -3 -5 -265 c-4 -234 -7
-269 -23 -293 -61 -94 -193 -86 -245 14 -22 42 -22 53 -22 294 l1 250 -48 2
c-26 1 -68 -3 -93 -8z m3600 -2595 c0 -1833 6 -1686 -68 -1742 l-35 -27 -1716
-3 c-1173 -2 -1727 0 -1752 8 -20 5 -48 19 -63 31 -60 47 -56 -73 -56 1721 0
904 0 1646 0 1651 0 4 830 7 1845 7 l1845 0 0 -1646z"/>
<path d="M1825 4080 c-10 -11 -18 -34 -18 -50 0 -16 8 -39 18 -50 18 -20 30
-20 625 -20 564 0 609 1 628 18 35 29 38 67 8 96 l-25 26 -609 0 c-598 0 -609
0 -627 -20z"/>
<path d="M1828 3693 c-37 -43 -28 -92 19 -112 21 -8 184 -11 625 -9 649 3 619
0 633 58 4 18 0 34 -15 53 l-21 27 -613 0 c-571 0 -614 -1 -628 -17z"/>
<path d="M1847 3318 c-42 -15 -52 -74 -20 -110 15 -17 94 -18 1378 -18 1307 0
1363 1 1378 18 24 26 21 75 -4 98 -21 18 -59 19 -1363 21 -885 1 -1350 -2
-1369 -9z"/>
<path d="M1829 2922 c-15 -13 -22 -30 -22 -52 0 -22 7 -39 22 -52 22 -17 69
-18 1115 -18 1221 0 1136 -5 1136 70 0 75 85 70 -1136 70 -1046 0 -1093 -1
-1115 -18z"/>
<path d="M1825 2530 c-23 -25 -24 -76 -1 -98 15 -16 84 -17 901 -20 875 -2
885 -2 905 18 12 12 20 33 20 54 0 70 55 66 -926 66 -870 0 -881 0 -899 -20z"/>
<path d="M1844 1768 c-43 -21 -50 -70 -16 -110 14 -17 83 -18 1184 -18 1155 0
1168 0 1188 20 26 26 26 72 -1 96 -20 18 -56 19 -1178 21 -784 1 -1163 -2
-1177 -9z"/>
<path d="M1825 1370 c-26 -29 -24 -79 4 -102 22 -17 76 -18 1375 -18 1511 0
1396 -6 1396 70 0 76 115 70 -1401 70 -1346 0 -1356 0 -1374 -20z"/>
</g>
</svg>
